<svg width="595" height="823" viewBox="0 0 595 823" fill="none" xmlns="http://www.w3.org/2000/svg">
<path d="M400.183 104.461C506.57 -66.2322 622.274 0.537697 622.274 104.461L622.274 617H0.00484434L0.00390625 287.115C3.64189 198.092 67.6628 214.625 96.3538 236.409C133.018 265.811 203.221 300.484 190.715 203.963C178.21 107.441 243.864 108.626 278.254 121.285C296.444 128.225 358.84 170.794 400.183 104.461Z" fill="#E8E8E8"/>
<path d="M282.43 748.98C357.396 869.051 438.927 822.083 438.927 748.98L438.927 377L0.441382 377L0.441389 620.495C3.00492 683.117 48.1177 671.487 68.3349 656.163C94.1707 635.481 143.639 611.09 134.827 678.987C126.015 746.883 172.279 746.049 196.512 737.145C209.33 732.263 253.297 702.318 282.43 748.98Z" fill="#E8E8E8"/>
</svg>
