<svg width="114" height="60" viewBox="0 0 114 60" fill="none" xmlns="http://www.w3.org/2000/svg">
<path d="M32.3475 0.252964H37.0063V22.4791H32.3475V0.252964Z" fill="white"/>
<path d="M45.899 22.4032C46.4866 22.614 47.0847 22.7879 47.6933 22.9249C48.3019 23.0725 48.8895 23.1884 49.4561 23.2727C50.0332 23.3676 50.5841 23.4308 51.1088 23.4625C51.6334 23.5046 52.1003 23.5257 52.5096 23.5257C53.7477 23.5257 54.8232 23.3729 55.7361 23.0672C56.6595 22.7721 57.4255 22.3715 58.0341 21.8656C58.6532 21.3597 59.1148 20.7694 59.4191 20.0949C59.7234 19.4308 59.8756 18.7246 59.8756 17.9763V17.17C59.4768 17.444 59.0099 17.7075 58.4748 17.9605C57.9396 18.2134 57.352 18.4348 56.712 18.6245C56.0719 18.8142 55.3899 18.9671 54.6659 19.083C53.9523 19.1989 53.2126 19.2569 52.4466 19.2569C50.9251 19.2569 49.5191 19.0303 48.2285 18.5771C46.9378 18.1133 45.8203 17.4704 44.876 16.6482C43.9316 15.8155 43.1919 14.8195 42.6567 13.6601C42.1321 12.5007 41.8698 11.2148 41.8698 9.80237C41.8698 8.35837 42.1478 7.05138 42.704 5.88142C43.2601 4.70092 44.0261 3.69433 45.0019 2.86166C45.9882 2.02899 47.153 1.38603 48.496 0.932806C49.8391 0.479578 51.2976 0.252964 52.8716 0.252964C53.5431 0.252964 54.2094 0.295125 54.8705 0.379447C55.5315 0.463768 56.1611 0.57971 56.7592 0.727273C57.3678 0.874835 57.9344 1.05402 58.459 1.26482C58.9942 1.46509 59.4664 1.68643 59.8756 1.92885V0.58498H64.5344V17.1067C64.5344 18.8037 64.2773 20.3057 63.7632 21.6126C63.249 22.9196 62.4936 24.0158 61.4967 24.9012C60.5104 25.7971 59.2827 26.4717 57.8137 26.9249C56.3447 27.3887 54.6606 27.6206 52.7614 27.6206C52.0794 27.6206 51.3711 27.5889 50.6366 27.5257C49.9021 27.473 49.1623 27.3887 48.4173 27.2727C47.6828 27.1673 46.9536 27.0356 46.2296 26.8775C45.5161 26.7299 44.8288 26.556 44.1677 26.3557L45.899 22.4032ZM46.7647 9.75494C46.7647 10.5033 46.9116 11.2095 47.2054 11.8735C47.5097 12.527 47.9399 13.1014 48.496 13.5968C49.0522 14.0817 49.7237 14.4664 50.5107 14.751C51.2976 15.025 52.1843 15.1621 53.1706 15.1621C53.8107 15.1621 54.4455 15.1041 55.0751 14.9881C55.7151 14.8617 56.3237 14.6877 56.9008 14.4664C57.4884 14.2451 58.0341 13.9763 58.5377 13.6601C59.0519 13.3439 59.4978 12.9908 59.8756 12.6008V6.45059C59.4034 6.07115 58.905 5.74967 58.3803 5.48617C57.8557 5.22266 57.3206 5.00659 56.7749 4.83794C56.2293 4.6693 55.6784 4.54809 55.1223 4.47431C54.5662 4.38999 54.0258 4.34783 53.5011 4.34783C52.4309 4.34783 51.476 4.49012 50.6366 4.7747C49.8077 5.05929 49.1046 5.44928 48.5275 5.94466C47.9609 6.42951 47.5254 6.99868 47.2212 7.65217C46.9169 8.30567 46.7647 9.00659 46.7647 9.75494Z" fill="white"/>
<path d="M68.7211 12.3915C68.7211 11.0529 68.9887 9.79858 69.5238 8.62862C70.0694 7.45866 70.8406 6.43626 71.8375 5.56143C72.8448 4.68659 74.0567 3.99621 75.4733 3.49028C76.9003 2.98435 78.5005 2.73139 80.2738 2.73139C82.0471 2.73139 83.642 2.98435 85.0585 3.49028C86.4855 3.99621 87.6975 4.68659 88.6943 5.56143C89.7016 6.43626 90.4728 7.45866 91.008 8.62862C91.5536 9.79858 91.8264 11.0529 91.8264 12.3915C91.8264 13.7301 91.5536 14.9844 91.008 16.1543C90.4728 17.3243 89.7016 18.3467 88.6943 19.2215C87.6975 20.0963 86.4855 20.7867 85.0585 21.2927C83.642 21.7986 82.0471 22.0515 80.2738 22.0515C78.5005 22.0515 76.9003 21.7986 75.4733 21.2927C74.0567 20.7867 72.8448 20.0963 71.8375 19.2215C70.8406 18.3467 70.0694 17.3243 69.5238 16.1543C68.9887 14.9844 68.7211 13.7301 68.7211 12.3915ZM73.616 12.3915C73.616 13.1398 73.7629 13.8513 74.0567 14.5259C74.361 15.1899 74.7965 15.7801 75.3631 16.2966C75.9402 16.8025 76.638 17.2083 77.4564 17.514C78.2854 17.8091 79.2245 17.9567 80.2738 17.9567C81.323 17.9567 82.2569 17.8091 83.0754 17.514C83.9043 17.2083 84.6021 16.8025 85.1687 16.2966C85.7458 15.7801 86.1813 15.1899 86.4751 14.5259C86.7793 13.8513 86.9315 13.1398 86.9315 12.3915C86.9315 11.6431 86.7793 10.9317 86.4751 10.2571C86.1813 9.58251 85.7458 8.99226 85.1687 8.48633C84.6021 7.96986 83.9043 7.56406 83.0754 7.26894C82.2569 6.96327 81.323 6.81044 80.2738 6.81044C79.2245 6.81044 78.2854 6.96327 77.4564 7.26894C76.638 7.56406 75.9402 7.96986 75.3631 8.48633C74.7965 8.99226 74.361 9.58251 74.0567 10.2571C73.7629 10.9317 73.616 11.6431 73.616 12.3915Z" fill="white"/>
<path d="M96.5325 0.58498H101.191V3.27273C102.22 2.50329 103.306 1.83926 104.449 1.28063C105.593 0.722003 106.732 0.295125 107.865 0L109.234 4.28458C107.44 4.46377 105.861 4.86957 104.497 5.50198C103.143 6.12385 102.041 7.00395 101.191 8.14229V25.3913H96.5325V0.58498Z" fill="white"/>
<path d="M3.21082 32.7589H7.86967L7.99558 48.8221C7.99558 49.7497 7.95361 50.5929 7.86967 51.3518C7.79622 52.1001 7.66506 52.7958 7.47618 53.4387C7.2978 54.0817 7.05122 54.6825 6.73643 55.2411C6.43214 55.7997 6.04915 56.3373 5.58746 56.8538C5.12578 57.3702 4.5749 57.8814 3.93483 58.3874C3.29477 58.9038 2.55502 59.4414 1.71559 60L0 56.0316C0.650559 55.5468 1.19094 55.0672 1.62115 54.5929C2.05136 54.1186 2.39238 53.6232 2.64421 53.1067C2.89604 52.5903 3.07442 52.0369 3.17935 51.4466C3.28427 50.8564 3.33674 50.2082 3.33674 49.502L3.21082 32.7589Z" fill="white"/>
<path d="M13.0951 45.7391C13.0951 44.8432 13.2892 44.0264 13.6775 43.2885C14.0657 42.5507 14.6481 41.9183 15.4245 41.3913C16.201 40.8538 17.1664 40.4427 18.3206 40.1581C19.4853 39.863 20.8389 39.7154 22.3813 39.7154C23.5251 39.7154 24.7265 39.7997 25.9856 39.9684C27.2553 40.137 28.5616 40.3953 29.9047 40.7431C29.8523 40.1528 29.6739 39.61 29.3696 39.1146C29.0653 38.6087 28.6403 38.1766 28.0947 37.8182C27.5596 37.4493 26.909 37.1647 26.143 36.9644C25.3875 36.7642 24.5271 36.664 23.5618 36.664C23.0371 36.664 22.46 36.6957 21.8305 36.7589C21.2009 36.8221 20.5503 36.917 19.8788 37.0435C19.2072 37.17 18.5409 37.3281 17.8799 37.5178C17.2293 37.7075 16.6207 37.9341 16.0541 38.1976L14.6376 34.3557C15.3406 34.1028 16.0908 33.8709 16.8883 33.6601C17.6963 33.4493 18.5199 33.2701 19.3594 33.1225C20.1988 32.9644 21.0382 32.8432 21.8777 32.7589C22.7171 32.6746 23.5303 32.6324 24.3173 32.6324C27.7904 32.6324 30.3717 33.5231 32.061 35.3044C33.7504 37.0856 34.5951 39.8155 34.5951 43.4941V51.6206H29.9362V49.8656C29.4535 50.1502 28.9236 50.419 28.3465 50.6719C27.7799 50.9249 27.1608 51.1463 26.4893 51.336C25.8178 51.5257 25.0937 51.6733 24.3173 51.7787C23.5513 51.8946 22.7381 51.9526 21.8777 51.9526C20.4297 51.9526 19.1548 51.7945 18.053 51.4783C16.9618 51.1621 16.0489 50.7246 15.3144 50.166C14.5799 49.6074 14.0237 48.9539 13.646 48.2055C13.2788 47.4466 13.0951 46.6245 13.0951 45.7391ZM18.0058 45.581C18.0058 45.8867 18.0845 46.1818 18.2419 46.4664C18.3993 46.7404 18.6511 46.9881 18.9974 47.2095C19.3436 47.4203 19.7843 47.5942 20.3195 47.7312C20.8651 47.8577 21.5209 47.921 22.2869 47.921C23.1053 47.921 23.8976 47.8472 24.6635 47.6996C25.4295 47.552 26.143 47.3571 26.8041 47.1146C27.4651 46.8722 28.0632 46.5929 28.5984 46.2767C29.1335 45.9605 29.5795 45.6337 29.9362 45.2964V44.4743C29.2227 44.274 28.5144 44.1054 27.8114 43.9684C27.1189 43.8314 26.4526 43.726 25.8125 43.6522C25.1829 43.5679 24.5848 43.5099 24.0182 43.4783C23.4621 43.4466 22.9742 43.4308 22.5545 43.4308C21.6836 43.4308 20.9595 43.4888 20.3824 43.6047C19.8053 43.7207 19.3384 43.8788 18.9816 44.0791C18.6249 44.2688 18.3731 44.4954 18.2261 44.7589C18.0792 45.0224 18.0058 45.2964 18.0058 45.581Z" fill="white"/>
<path d="M40.7649 32.9644H45.4237V34.5455C46.6619 33.8393 47.8423 33.3439 48.9651 33.0593C50.0983 32.7747 51.2053 32.6324 52.2861 32.6324C53.7026 32.6324 55.0142 32.8432 56.2209 33.2648C57.4276 33.6759 58.4716 34.2925 59.353 35.1146C60.2344 35.9368 60.9217 36.9644 61.4149 38.1976C61.9185 39.4203 62.1704 40.8379 62.1704 42.4506V58.3874H57.5273V43.2095C57.5273 42.1871 57.3804 41.2754 57.0866 40.4743C56.8033 39.6627 56.3888 38.9829 55.8432 38.4348C55.308 37.8762 54.6522 37.4545 53.8757 37.17C53.1098 36.8748 52.2493 36.7273 51.2945 36.7273C50.7908 36.7273 50.2714 36.78 49.7363 36.8854C49.2117 36.9908 48.6923 37.1436 48.1781 37.3439C47.6744 37.5336 47.1865 37.776 46.7143 38.0711C46.2422 38.3557 45.812 38.6825 45.4237 39.0514V51.6206H40.7649V32.9644Z" fill="white"/>
<path d="M67.9152 25.3913H72.5741V40.8854L81.2622 32.9644H88.3921L78.6809 41.6917L89.0059 51.6206H82.0177L75.1081 44.9012L72.5741 47.1779V58.0964H67.9152V25.3913Z" fill="white"/>
<path d="M91.1937 42.2292C91.1937 40.9644 91.4508 39.7576 91.9649 38.6087C92.4791 37.4493 93.2188 36.4269 94.1842 35.5415C95.1495 34.6561 96.33 33.9499 97.7255 33.4229C99.1316 32.8959 100.726 32.6324 102.51 32.6324C104.284 32.6324 105.879 32.9012 107.295 33.4387C108.722 33.9657 109.929 34.693 110.915 35.6206C111.912 36.5481 112.673 37.639 113.197 38.8933C113.732 40.1476 114 41.4914 114 42.9249C114 43.1041 113.995 43.2991 113.984 43.5099C113.984 43.7101 113.974 43.8946 113.953 44.0632H96.3877C96.5871 44.6219 96.9071 45.1331 97.3478 45.5968C97.799 46.0606 98.3604 46.4611 99.0319 46.7984C99.7034 47.1357 100.48 47.3992 101.361 47.5889C102.243 47.7681 103.219 47.8577 104.289 47.8577C105.359 47.8577 106.424 47.747 107.484 47.5257C108.544 47.2938 109.556 47.004 110.522 46.6561L112.096 50.2293C111.487 50.5138 110.868 50.7668 110.238 50.9881C109.619 51.1989 108.969 51.3781 108.287 51.5257C107.615 51.6627 106.907 51.7681 106.162 51.8419C105.427 51.9157 104.651 51.9526 103.832 51.9526C101.744 51.9526 99.9133 51.6996 98.3394 51.1937C96.7654 50.6878 95.4486 49.9974 94.3888 49.1225C93.329 48.2477 92.5315 47.22 91.9964 46.0395C91.4613 44.859 91.1937 43.5889 91.1937 42.2292ZM109.058 40.4111C108.89 39.8946 108.628 39.415 108.271 38.9723C107.925 38.5191 107.489 38.1291 106.965 37.8024C106.44 37.4651 105.831 37.2016 105.139 37.0119C104.446 36.8221 103.685 36.7273 102.857 36.7273C101.975 36.7273 101.172 36.8274 100.448 37.0277C99.7244 37.2279 99.0896 37.4967 98.544 37.834C97.9983 38.1713 97.5419 38.5613 97.1747 39.004C96.8179 39.4466 96.5556 39.9157 96.3877 40.4111H109.058Z" fill="white"/>
</svg>
