<svg width="620" height="824" viewBox="0 0 620 824" fill="none" xmlns="http://www.w3.org/2000/svg">
<path d="M221.281 104.122C115.282 -66.0175 0 0.535954 0 104.122L0.000244141 615H619.999L620 286.184C616.375 197.449 552.588 213.929 524.002 235.643C487.471 264.949 417.524 299.51 429.984 203.301C442.444 107.093 377.03 108.274 342.765 120.891C324.641 127.81 262.473 170.241 221.281 104.122Z" fill="#9DACC4"/>
<path d="M247.496 749.98C172.53 870.051 90.9983 823.083 90.9983 749.98L90.9984 378L529.484 378L529.484 621.495C526.921 684.117 481.808 672.487 461.591 657.163C435.755 636.481 386.286 612.09 395.099 679.987C403.911 747.883 357.647 747.049 333.414 738.145C320.596 733.263 276.629 703.318 247.496 749.98Z" fill="#9DACC4"/>
</svg>
