<svg width="562" height="762" viewBox="0 0 562 762" fill="none" xmlns="http://www.w3.org/2000/svg">
<path d="M361.42 94.3024C457.502 -59.7914 562 0.485409 562 94.3024L562 557H0.000847228L0 259.194C3.28563 178.828 61.1058 193.754 87.0179 213.419C120.131 239.962 183.534 271.264 172.24 184.128C160.946 96.9927 220.241 98.0631 251.3 109.49C267.728 115.756 324.081 154.186 361.42 94.3024Z" fill="#E8E8E8"/>
<path d="M282.426 687.98C357.392 808.051 438.924 761.083 438.924 687.98L438.923 316L0.437476 316L0.437482 559.495C3.00102 622.117 48.1137 610.487 68.331 595.163C94.1668 574.481 143.635 550.09 134.823 617.987C126.011 685.883 172.275 685.049 196.508 676.145C209.326 671.263 253.293 641.318 282.426 687.98Z" fill="#E8E8E8"/>
</svg>
